<?xml version="1.0" ?><!DOCTYPE svg  PUBLIC '-//W3C//DTD SVG 1.1//EN'  'http://www.w3.org/Graphics/SVG/1.1/DTD/svg11.dtd'><svg enable-background="new 0 0 512 512" height="512px" id="Layer_1" version="1.1" viewBox="0 0 512 512" width="512px" xml:space="preserve" xmlns="http://www.w3.org/2000/svg" xmlns:xlink="http://www.w3.org/1999/xlink"><g id="Layer_14"><g><g><g><path d="M512,256.932C512,115.547,397.386,0.93,256.003,0.93C114.614,0.93,0,115.547,0,256.932      C0,398.32,114.614,512.93,256.003,512.93C397.386,512.93,512,398.318,512,256.932z" fill="#DF5745"/></g></g><path d="M256,512.93c141.386,0,256-114.613,256-256c0-68.158-26.688-130.044-70.113-175.918L77.741,440.58    C123.838,485.332,186.68,512.93,256,512.93z" fill="#C64C3C"/><path clip-rule="evenodd" d="M331.569,366.902c6.977,14.992,17.536,25.073,34.911,25.844    c2.495,0.109,3.264,0.986,3.47,3.393c0.574,6.702,1.376,13.386,2.197,20.064c0.269,2.184-0.268,3.259-2.576,3.988    c-27.845,8.789-53.511,0.512-71.803-23.426c-2.75-3.6-5.038-7.55-7.632-11.272c-0.4-0.574-1.394-1.235-1.959-1.119    c-14.209,2.945-28.595,2.523-42.931,2.009c-17.925-0.643-35.445-3.874-52.252-10.319c-41.202-15.799-66.495-45.714-76.886-88.205    c-7.271-29.736-8.568-59.876-0.108-89.538c15.945-55.91,53.316-90.367,109.327-103.891c33.822-8.166,67.333-4.026,99.344,9.441    c34.494,14.512,57.303,40.245,68.418,75.838c10.449,33.462,11.933,67.486,2.441,101.444c-9.979,35.705-30.646,63.856-61.82,84.141    c-0.544,0.354-1.087,0.708-1.621,1.074C331.958,366.456,331.864,366.596,331.569,366.902z M310.808,325.736    c0.601-0.836,1.254-1.661,1.815-2.544c1.349-2.121,2.747-4.218,3.958-6.415c8.702-15.783,12.403-33.004,14.069-50.706    c2.039-21.645,1.677-43.274-1.871-64.772c-2.471-14.973-6.761-29.341-14.58-42.511c-18.653-31.416-53.354-37.242-79.703-27.679    c-18.129,6.581-30.426,19.65-38.999,36.5c-9.746,19.157-13.266,39.854-14.615,61.036c-0.929,14.605-0.63,29.196,0.959,43.749    c1.484,13.592,4.196,26.897,9.717,39.499c7.096,16.196,18.032,28.606,34.972,34.899c11.773,4.373,24.025,5.235,36.436,4.246    c3.977-0.316,7.917-1.077,12.255-1.689c-4.552-8.977-10.104-16.181-19.398-19.212c-4.479-1.461-9.329-1.831-14.037-2.521    c-1.314-0.191-1.939-0.396-2.185-1.878c-1.207-7.273-2.49-14.535-3.94-21.763c-0.346-1.723,0.141-2.47,1.628-2.784    c5.527-1.168,11.022-2.949,16.605-3.3c17.384-1.089,32.5,4.865,45.451,16.313C303.338,317.734,306.889,321.766,310.808,325.736z" fill="#FFFFFF" fill-rule="evenodd"/><path clip-rule="evenodd" d="M328.78,201.299c3.548,21.498,3.91,43.127,1.871,64.772    c-1.666,17.702-5.367,34.923-14.069,50.706c-1.211,2.197-2.609,4.294-3.958,6.415c-0.562,0.883-1.215,1.708-1.815,2.544    c-3.919-3.971-7.47-8.002-11.462-11.531c-12.951-11.448-28.066-17.402-45.451-16.313c-5.583,0.351-11.079,2.132-16.605,3.3    c-1.488,0.314-1.974,1.062-1.628,2.784c1.45,7.228,2.733,14.489,3.94,21.763c0.246,1.481,0.871,1.687,2.185,1.878    c4.708,0.689,9.558,1.06,14.037,2.521c9.294,3.031,14.847,10.235,19.398,19.212c-4.338,0.612-8.278,1.373-12.255,1.689    c-12.411,0.989-24.663,0.127-36.436-4.246c-12.973-4.819-22.415-13.235-29.317-24.183l-36.39,35.934    c9.375,7.025,20.082,12.886,32.17,17.521c16.808,6.445,34.327,9.677,52.252,10.319c14.336,0.515,28.722,0.937,42.931-2.009    c0.565-0.116,1.559,0.545,1.959,1.119c2.594,3.723,4.882,7.673,7.632,11.272c18.292,23.938,43.958,32.215,71.803,23.426    c2.309-0.729,2.845-1.805,2.576-3.988c-0.821-6.679-1.623-13.362-2.197-20.064c-0.206-2.406-0.975-3.283-3.47-3.393    c-17.375-0.771-27.935-10.852-34.911-25.844c0.295-0.307,0.39-0.446,0.52-0.535c0.534-0.366,1.077-0.72,1.621-1.074    c31.174-20.284,51.842-48.436,61.82-84.141c9.491-33.958,8.008-67.981-2.441-101.444c-3.973-12.72-9.446-24.173-16.405-34.313    l-49.267,48.648C327.922,196.445,328.377,198.863,328.78,201.299z" fill="#F1F2F2" fill-rule="evenodd"/></g></g><g id="Layer_1_1_"/></svg>